<?xml version="1.0" encoding="UTF-8"?>
<svg version="1.1" xmlns="http://www.w3.org/2000/svg" width="180" height="180">
<path d="M0 0 C2.1507987 -0.00961036 4.30060107 -0.04061049 6.45117188 -0.07226562 C30.77686571 -0.26031054 51.59086249 10.45959444 68.87304688 27.11523438 C80.76281677 39.33940405 87.66011414 53.83551387 91.68554688 70.24023438 C91.86134277 70.81757324 92.03713867 71.39491211 92.21826172 71.98974609 C93.27105102 77.06007616 92.91185647 82.38859478 92.92578125 87.5546875 C92.93539161 89.7054862 92.96639174 91.85528857 92.99804688 94.00585938 C93.18609179 118.33155321 82.46618681 139.14554999 65.81054688 156.42773438 C53.5863772 168.31750427 39.09026738 175.21480164 22.68554688 179.24023438 C22.10820801 179.41603027 21.53086914 179.59182617 20.93603516 179.77294922 C15.86570509 180.82573852 10.53718647 180.46654397 5.37109375 180.48046875 C3.22029505 180.49007911 1.07049268 180.52107924 -1.08007812 180.55273438 C-25.40577196 180.74077929 -46.21976874 170.02087431 -63.50195312 153.36523438 C-75.39172302 141.1410647 -82.28902039 126.64495488 -86.31445312 110.24023438 C-86.49024902 109.66289551 -86.66604492 109.08555664 -86.84716797 108.49072266 C-87.89995727 103.42039259 -87.54076272 98.09187397 -87.5546875 92.92578125 C-87.56429786 90.77498255 -87.59529799 88.62518018 -87.62695312 86.47460938 C-87.81499804 62.14891554 -77.09509306 41.33491876 -60.43945312 24.05273438 C-48.21528345 12.16296448 -33.71917363 5.26566711 -17.31445312 1.24023438 C-16.73711426 1.06443848 -16.15977539 0.88864258 -15.56494141 0.70751953 C-10.49461134 -0.34526977 -5.16609272 0.01392478 0 0 Z " fill="#FEFEFE" transform="translate(87.314453125,-0.240234375)"/>
<path d="M0 0 C23.01913876 0 23.01913876 0 29 5 C34.84229876 11.20442472 36.20995195 16.23070422 36.3125 24.6875 C36.34150391 25.46544922 36.37050781 26.24339844 36.40039062 27.04492188 C36.47362887 33.7997412 34.7113799 38.91996757 30.21875 44.0234375 C29.6515625 44.46945313 29.084375 44.91546875 28.5 45.375 C27.9328125 45.83648437 27.365625 46.29796875 26.78125 46.7734375 C17.71639429 53.01546533 14.54152516 50 0 50 C0 33.5 0 17 0 0 Z " fill="#0F0F0F" transform="translate(50,65)"/>
<path d="M0 0 C22 0 22 0 30 4 C32.51698153 6.9102599 32.9511702 8.61633731 33.4375 12.4375 C32.92474834 16.61276352 31.44401934 18.6394734 29 22 C28.65944803 25.24565858 28.65944803 25.24565858 31.5 27.6875 C33.67679255 30.16645356 34.38130127 31.75301899 34.4375 35.0625 C33.79144083 40.87703253 32.55740187 44.22386702 28 48 C23 50 23 50 0 50 C0 33.5 0 17 0 0 Z " fill="#0F0F0F" transform="translate(96,65)"/>
<path d="M0 0 C14 0 14 0 18 3 C22.26020572 8.08400241 22.64740604 12.02203021 22.5625 18.375 C22.58634766 19.18710938 22.61019531 19.99921875 22.63476562 20.8359375 C22.62002764 26.96694088 21.02934712 31.32584372 17 36 C10.94353387 39.80013561 7.77986896 39 0 39 C0 26.13 0 13.26 0 0 Z " fill="#FCFCFC" transform="translate(57,71)"/>
<path d="M0 0 C3.5578125 -0.12375 3.5578125 -0.12375 7.1875 -0.25 C7.92508545 -0.28641602 8.6626709 -0.32283203 9.42260742 -0.36035156 C12.92617872 -0.41902041 14.92027205 -0.04682435 17.953125 1.734375 C20.22575016 4.24987613 20.65943385 5.17003717 20.5625 8.5 C20.3812822 11.74060072 20.14326063 12.80239913 18.1875 15.5 C12.72753522 19.24397585 6.3601573 18.06297185 0 18 C0 12.06 0 6.12 0 0 Z " fill="#FBFBFB" transform="translate(103,92)"/>
<path d="M0 0 C3.58875 -0.0928125 3.58875 -0.0928125 7.25 -0.1875 C8.37003418 -0.22846802 8.37003418 -0.22846802 9.51269531 -0.27026367 C12.56349653 -0.3084192 14.72669674 -0.14100359 17.453125 1.265625 C19.57393806 3.64350631 19.48348473 5.86607204 19.53125 8.96484375 C18.73067523 12.0317515 17.57005666 13.15430644 15 15 C12.2317375 15.29449601 9.98597978 15.38343363 7.25 15.25 C4.8575 15.1675 2.465 15.085 0 15 C0 10.05 0 5.1 0 0 Z " fill="#FBFBFB" transform="translate(103,71)"/>
</svg>
